<!--?xml version="1.0" standalone="no"?-->              <svg id="sw-js-blob-svg" viewBox="0 0 100 100" xmlns="http://www.w3.org/2000/svg">                    <defs>                         <linearGradient id="sw-gradient" x1="0" x2="1" y1="1" y2="0">                            <stop id="stop1" stop-color="rgba(0, 141.064, 255, 1)" offset="0%"></stop>                            <stop id="stop2" stop-color="rgba(201.643, 231.245, 255, 1)" offset="100%"></stop>                        </linearGradient>                    </defs>                <path fill="url(#sw-gradient)" d="M18.1,-31.4C22.2,-29.1,23.2,-21.5,26.9,-15.4C30.6,-9.3,37,-4.7,36.6,-0.2C36.3,4.3,29.2,8.5,24.5,12.8C19.7,17.1,17.2,21.3,13.5,27.3C9.9,33.4,4.9,41.1,-0.7,42.3C-6.3,43.4,-12.5,38,-18.9,33.5C-25.4,29.1,-32,25.7,-34.6,20.3C-37.2,14.9,-35.8,7.4,-33.8,1.1C-31.8,-5.1,-29.3,-10.3,-25.3,-13.3C-21.3,-16.4,-15.9,-17.3,-11.5,-19.4C-7,-21.4,-3.5,-24.6,1.8,-27.7C7.1,-30.8,14.1,-33.7,18.1,-31.4Z" width="100%" height="100%" transform="translate(50 50)" stroke-width="0" style="transition: all 0.3s ease 0s;" stroke="url(#sw-gradient)"></path>              </svg>